<svg xmlns="http://www.w3.org/2000/svg" width="401.399" height="621.666" viewBox="0 0 401.399 621.666">
  <g id="breast-cancer" transform="translate(-9.05 -0.748)">
    <path id="Caminho_6731" data-name="Caminho 6731" d="M327.837,456.949,271.318,598.629S201.376,493.3,137.34,387.98c-3.356-5.614-6.847-11.228-10.2-16.841l-53.028-91.29c-3.222-5.747-6.175-11.361-8.995-16.841A489.007,489.007,0,0,1,38,205.8C10.61,132.42,13.832,98.6,19.739,69.6A135.943,135.943,0,0,1,54.912,3.437l.805-.775a225.96,225.96,0,0,0,.268,55.309l-.671.495a301.165,301.165,0,0,0,47.926,115.75c3.893,6.282,8.323,13.1,13.29,20.316,3.356,4.812,6.847,10.025,10.606,15.237l53.028,70.038c3.759,4.812,7.652,9.757,11.68,14.569C256.82,375.95,327.837,456.949,327.837,456.949Z" transform="translate(82.613 23.784)" fill="#f2cb00"/>
    <path id="Caminho_6732" data-name="Caminho 6732" d="M136,22.782a130.338,130.338,0,0,0-15.237-8.471A87.073,87.073,0,0,0,86.26,6.27a91.449,91.449,0,0,0-36.475,8.847A143.31,143.31,0,0,0,26.453,30.072l-7.464,5.571A338.3,338.3,0,0,0,62.364,130.18c3.45,5.6,7.4,11.666,11.693,18,7.692-11.116,14.083-20.714,19-28.622A302.459,302.459,0,0,0,136,22.782Z" transform="translate(123.489 68.612)" fill="none"/>
    <path id="Caminho_6733" data-name="Caminho 6733" d="M149.226,121.8,82.707,34.548C78.948,29.313,71.054,17.66,70.5,16.841c-1.342,1.853-51.229,68.466-51.229,68.466.483.94,7.182,13.868,10.4,19.64l53.028,91.637c3.356,5.638,11.25,18.62,11.76,19.479C96.36,212.936,149.226,121.8,149.226,121.8Z" transform="translate(127.043 198.625)" fill="#e7b913"/>
    <path id="Caminho_6734" data-name="Caminho 6734" d="M317.147,93.288a135.975,135.975,0,0,0-35.173-66.174A92.666,92.666,0,0,0,214.851.778h-10.2a92.666,92.666,0,0,0-67.124,26.336,197.194,197.194,0,0,0-1.477,40.239c.537,5.08,1.074,10.026,1.879,14.839A170.6,170.6,0,0,1,165.045,65.08a112.133,112.133,0,0,1,44.7-10.561,107.626,107.626,0,0,1,42.556,9.625,230.442,230.442,0,0,1,29.4,17.245,301.779,301.779,0,0,1-48.061,116.573c-6.578,10.561-14.767,22.593-23.9,35.56l-53.028,70.051C88.793,389.8,9.05,480.707,9.05,480.707L65.568,622.413S143.163,505.439,209.75,394.881l53.028-91.307a629.783,629.783,0,0,0,36.113-74.061C326.276,156.12,323.054,122.3,317.147,93.288Z" transform="translate(0 0)" fill="#ffd600"/>
    <path id="Caminho_6735" data-name="Caminho 6735" d="M166.306,67.633c-.4,4.833-1.074,9.532-1.745,14.1a230.225,230.225,0,0,0-29.4-17.318A107.251,107.251,0,0,0,92.6,54.745,111.748,111.748,0,0,0,47.9,65.351,170.5,170.5,0,0,0,20.782,82.534c-.806-4.833-1.343-9.8-1.879-14.9a198.847,198.847,0,0,1,1.477-40.408A92.456,92.456,0,0,1,87.5.778h10.2a92.456,92.456,0,0,1,67.124,26.447,198.853,198.853,0,0,1,1.477,40.408Z" transform="translate(117.145 0)" fill="#e7b913"/>
  </g>
</svg>
